<svg xmlns="http://www.w3.org/2000/svg" xmlns:xlink="http://www.w3.org/1999/xlink" width="500" zoomAndPan="magnify" viewBox="0 0 375 374.999991" height="500" preserveAspectRatio="xMidYMid meet" version="1.0"><defs><clipPath id="22f6bef715"><path d="M 168.90625 86.972656 L 184.582031 86.972656 L 184.582031 282.449219 L 168.90625 282.449219 Z M 168.90625 86.972656 " clip-rule="nonzero"/></clipPath></defs><rect x="-37.5" width="450" fill="#ffffff" y="-37.499999" height="449.999989" fill-opacity="1"/><rect x="-37.5" width="450" fill="#ffffff" y="-37.499999" height="449.999989" fill-opacity="1"/><rect x="-37.5" width="450" fill="#000000" y="-37.499999" height="449.999989" fill-opacity="1"/><path stroke-linecap="butt" transform="matrix(1.303183, 0, 0, 1.303183, -139.591789, 85.122174)" fill="none" stroke-linejoin="miter" d="M 224.547846 58.084114 C 224.403967 52.457865 222.455613 47.152346 219.065476 43.00385 C 223.501729 37.701328 226.028595 30.882088 226.028595 23.199576 C 226.028595 5.772295 213.004595 -7.251705 194.678073 -8.729457 L 166.609779 -8.549609 L 166.609779 103.145056 L 188.038681 103.145056 L 188.038681 54.981734 L 199.728807 54.981734 C 201.641192 54.981734 203.118944 56.462483 203.118944 58.227992 L 203.406701 103.145056 L 224.691724 103.145056 Z M 191.14106 33.552832 L 188.182559 33.552832 L 188.182559 12.555566 L 191.14106 12.555566 C 193.341202 12.555566 204.596696 13.170047 204.596696 23.199576 C 204.596696 32.794473 194.387319 33.552832 191.14106 33.552832 Z M 191.14106 33.552832 " stroke="#ffffff" stroke-width="4.248387" stroke-opacity="1" stroke-miterlimit="4"/><g clip-path="url(#22f6bef715)"><path fill="#ffffff" d="M 168.90625 86.972656 L 184.582031 86.972656 L 184.582031 282.449219 L 168.90625 282.449219 Z M 168.90625 86.972656 " fill-opacity="1" fill-rule="nonzero"/></g><path stroke-linecap="butt" transform="matrix(1.303183, 0, 0, 1.303183, -6.68147, 152.306181)" fill="none" stroke-linejoin="miter" d="M 210.129898 -9.017531 L 196.383508 19.518368 L 182.496237 -9.017531 L 159.874343 -9.017531 L 159.874343 102.856982 L 181.303245 102.856982 L 181.303245 37.233406 L 196.527387 68.44005 L 211.283924 37.84489 L 211.283924 102.856982 L 232.712825 102.856982 L 232.712825 -9.017531 Z M 210.129898 -9.017531 " stroke="#ff004f" stroke-width="4.248387" stroke-opacity="1" stroke-miterlimit="4"/></svg>